<svg xmlns="http://www.w3.org/2000/svg" xmlns:xlink="http://www.w3.org/1999/xlink" width="500" zoomAndPan="magnify" viewBox="0 0 375 374.999991" height="500" preserveAspectRatio="xMidYMid meet" version="1.0"><defs><clipPath id="662d4d558c"><path d="M 163 132 L 327.046875 132 L 327.046875 296 L 163 296 Z M 163 132 " clip-rule="nonzero"/></clipPath><clipPath id="6b73a6dc0f"><path d="M 227 79 L 327.046875 79 L 327.046875 180 L 227 180 Z M 227 79 " clip-rule="nonzero"/></clipPath><clipPath id="a653497915"><path d="M 229 262 L 327.046875 262 L 327.046875 360 L 229 360 Z M 229 262 " clip-rule="nonzero"/></clipPath><clipPath id="e4d2daa8fb"><path d="M 229 15 L 327.046875 15 L 327.046875 113 L 229 113 Z M 229 15 " clip-rule="nonzero"/></clipPath><clipPath id="50bbecb500"><path d="M 48.046875 0 L 147 0 L 147 116 L 48.046875 116 Z M 48.046875 0 " clip-rule="nonzero"/></clipPath><clipPath id="6c5b7766a2"><path d="M 48.046875 195 L 211 195 L 211 375 L 48.046875 375 Z M 48.046875 195 " clip-rule="nonzero"/></clipPath><clipPath id="ac33182554"><path d="M 48.046875 0 L 72 0 L 72 375 L 48.046875 375 Z M 48.046875 0 " clip-rule="nonzero"/></clipPath></defs><path fill="#a31a19" d="M 74.761719 187.503906 L 246.613281 15.699219 L 263.429688 32.507812 L 91.574219 204.3125 Z M 74.761719 187.503906 " fill-opacity="1" fill-rule="evenodd"/><g clip-path="url(#662d4d558c)"><path fill="#a31a19" d="M 163.566406 149.15625 L 180.382812 132.347656 L 327.015625 278.925781 L 310.203125 295.738281 Z M 163.566406 149.15625 " fill-opacity="1" fill-rule="evenodd"/></g><g clip-path="url(#6b73a6dc0f)"><path fill="#a31a19" d="M 227.152344 162.289062 L 310.199219 79.265625 L 327.015625 96.074219 L 243.964844 179.097656 Z M 227.152344 162.289062 " fill-opacity="1" fill-rule="evenodd"/></g><path fill="#a31a19" d="M 201.925781 187.515625 L 218.742188 170.707031 L 235.554688 187.519531 L 218.738281 204.328125 Z M 201.925781 187.515625 " fill-opacity="1" fill-rule="evenodd"/><path fill="#a31a19" d="M 74.761719 187.5 L 129.941406 242.660156 L 146.753906 225.851562 L 91.578125 170.699219 Z M 138.34375 251.066406 L 155.164062 234.257812 L 171.980469 251.066406 L 155.164062 267.875 Z M 163.566406 276.28125 L 246.613281 359.300781 L 263.429688 342.492188 L 180.390625 259.46875 Z M 163.566406 276.28125 " fill-opacity="1" fill-rule="evenodd"/><g clip-path="url(#a653497915)"><path fill="#a31a19" d="M 229.800781 342.492188 L 310.203125 262.113281 L 327.015625 278.921875 L 246.613281 359.300781 Z M 229.800781 342.492188 " fill-opacity="1" fill-rule="evenodd"/></g><g clip-path="url(#e4d2daa8fb)"><path fill="#a31a19" d="M 229.796875 32.511719 L 246.609375 15.699219 L 327.011719 96.074219 L 310.199219 112.882812 Z M 229.796875 32.511719 " fill-opacity="1" fill-rule="evenodd"/></g><g clip-path="url(#50bbecb500)"><path fill="#a31a19" d="M 48.046875 33.675781 L 129.941406 115.53125 L 146.753906 98.726562 L 48.046875 0.0507812 Z M 48.046875 33.675781 " fill-opacity="1" fill-rule="evenodd"/></g><g clip-path="url(#6c5b7766a2)"><path fill="#a31a19" d="M 48.046875 374.949219 L 210.335938 212.714844 L 193.519531 195.90625 L 48.046875 341.332031 Z M 48.046875 374.949219 " fill-opacity="1" fill-rule="evenodd"/></g><g clip-path="url(#ac33182554)"><path fill="#a31a19" d="M 71.832031 351.179688 L 71.832031 23.820312 L 48.046875 0.0507812 L 48.046875 374.949219 Z M 71.832031 351.179688 " fill-opacity="1" fill-rule="evenodd"/></g></svg>